<svg id="Layer_1" data-name="Layer 1" xmlns="http://www.w3.org/2000/svg" viewBox="0 0 123.99 70.97"><defs><style>.cls-1{fill:#004494;}</style></defs><path d="M3.4,70.32l6-13h2v3.07l-2.17,5h2.17v2.22H8.33L7.14,70.32Zm18.44,0v-13h3.52V67.93h8.46v2.39ZM43,57.32v3.07l-2.15,5H43v2.22H40l-1.21,2.68H35l6-13Zm-31.6,0h2.11l6,13H15.66L14.6,67.64H11.42V65.42h2.16l-2.12-5.13,0,.1ZM43,67.64V65.42h2.16l-2.11-5.13,0,.1V57.32h2.12l6,13H47.28l-1.09-2.68ZM60.39,57.32v2.25h-3.5V63.1h3.5v2.16h-3.5v5.06H53.46v-13Zm10,13v-13h5.21l3.08,10.25h0l3.06-10.25H86.9v13H83.58V59.51h0l-3.16,10.8H76.86L73.75,59.51h0v10.8Zm-10-5.06V63.1h1q2.52,0,2.52-1.83c0-1.39-1.55-1.7-2.44-1.7h-1V57.32h1.68c2.17,0,5.32,1,5.32,3.65a3.25,3.25,0,0,1-2.59,3.17A2.55,2.55,0,0,1,66.9,67c0,.37,0,.76,0,1.13,0,.65,0,1.68.82,1.82v.36H63.78a7,7,0,0,1-.4-2.5c0-.32,0-.59,0-.74,0-1.71-1.48-1.82-2.67-1.82ZM97,57.32v3.06l-2.15,5H97v2.22H93.9l-1.22,2.68H89l6-13Zm9.58,9H110c0,1.68,2,2.07,3.35,2.07,2.46,0,3.75-.55,3.75-1.58,0-.48-.33-1-.65-1.07a11.3,11.3,0,0,0-2.45-.62c-.47,0-1.42-.28-1.62-.28a10.2,10.2,0,0,1-4.17-1.25A2.94,2.94,0,0,1,106.83,61c0-3.21,4-3.93,6.41-3.93,2.66,0,6.59.82,6.75,4.18h-3.4c-.15-1.32-1.41-1.93-3.55-1.93-1.83,0-2.94.58-2.94,1.48,0,3.16,10.42.5,10.42,5.69a3.28,3.28,0,0,1-1.23,2.67,9.41,9.41,0,0,1-5.3,1.55c-4.83,0-7.32-1.48-7.44-4.32M97,67.64V65.42h2.17L97,60.29l0,.09V57.32h2.12l6,13h-3.87l-1.09-2.68Z"/><polygon class="cls-1" points="73.18 37.41 50.06 37.41 52.52 41.3 75.69 41.3 75.69 36.45 73.18 31.86 73.18 37.41"/><polygon class="cls-1" points="32.44 30.46 25.7 41.3 17.7 41.3 15.88 37.39 23.65 37.39 30.27 26.93 32.44 30.46"/><polygon class="cls-1" points="30.41 15.07 24.47 5.26 29.6 7.3 32.44 12.21 30.41 15.07"/><path class="cls-1" d="M4.79,33.71C-1.16,12.14,14.38,4,25.06,4.08H94.69c11.89.55,15.94,5,18.39,7.83C108.05,3.85,102.82.31,94.24.31H25.06C3.9-.41-5.68,19.57,4.79,33.71"/><path class="cls-1" d="M77.09,20.81A3.25,3.25,0,0,1,79,20a5.6,5.6,0,0,1-2.85-2Z"/><path class="cls-1" d="M83.23,17.52c.3-3.65,3.85-4.72,7.79-2.65.3-8.36-15.17-5.08-7.79,2.65"/><path class="cls-1" d="M96.33,9.33c4.8,3.9,4,9.21.82,13.35a8.57,8.57,0,0,0-3.68-3.11c4-2,5.13-5.64,2.86-10.24"/><path class="cls-1" d="M82,31.67c-8.76-7.27,8.84-13.61,10.26-3.27C89.53,26.07,81.77,26.59,82,31.67"/><path class="cls-1" d="M74.23,32.29c5.08,18.57,34.33,8,24.17-7,2.43,15.35-19.24,15.7-24.17,7"/><path class="cls-1" d="M.5,38c6.42,7.84,14.57,10.32,22.94,10.32H94.8c15.14,0,31.57-14.43,24.52-38.19,12.7,25.49-6.14,42.6-22.15,42.6H25.51C17.27,53,6.84,49.93.5,38"/><path class="cls-1" d="M36.55,37.4l2,3.88H49.66L42.29,28.4H52.93l3.91-5.56-1.21-2.05h3.88c.16-5.9,4.27-7.1,7.16-4.88.79-6.69-9.23-7.84-9.62.79H50.49l1.64,2.69h2.18l-3.43,5.29H39.33l.44-1-1.38-2.24,8-12.54L43.93,5.23,34.1,21l9.4,16.39Z"/><path class="cls-1" d="M59.08,31.65h6.54C71.07,27.59,77,25.13,76,16.78c-.28-2.29-1.58-4.72-4.22-7.26,6.55,12.4-9.34,18-12.69,22.13"/></svg>