<svg id="Layer_1" data-name="Layer 1" xmlns="http://www.w3.org/2000/svg" viewBox="0 0 112 112"><defs><style>.cls-1{fill:#fafafa;}</style></defs><path class="cls-1" d="M66.06,81.56l-1.25-4c-.55.12-1.08.25-1.62.35A24.61,24.61,0,0,1,43,73.19,23.84,23.84,0,0,1,33.93,58.5a23.86,23.86,0,0,1,4.81-19.4,22.71,22.71,0,0,1,14.07-8.32A22.4,22.4,0,0,1,75.08,40a21.93,21.93,0,0,1,3.41,7.87.33.33,0,0,1,0,.14,23.05,23.05,0,0,0-1.55-3.86,20.82,20.82,0,0,0-10.38-9.81,20.31,20.31,0,0,0-26.14,9.07,19.31,19.31,0,0,0-.38,17A18.22,18.22,0,0,0,53.17,70.8a17.35,17.35,0,0,0,9.09-.53l.13,0,.06,0-1.58-5,10.79,5.6Z"/><path class="cls-1" d="M52.81,57.43v2.16H45.24c0-.64,0-1.26,0-1.89,0-.1.1-.21.17-.3L49.56,52a3.25,3.25,0,0,0,.74-2.26,1.31,1.31,0,0,0-1.53-1.34,1.26,1.26,0,0,0-1.15,1.17c0,.22,0,.44,0,.68H45.19a3.52,3.52,0,0,1,1.1-3,4.33,4.33,0,0,1,5.52.11,3.74,3.74,0,0,1,1,3.25,5,5,0,0,1-1.15,2.57c-1,1.31-2,2.61-3,3.92a3.39,3.39,0,0,0-.25.33h4.43Z"/><path class="cls-1" d="M60.55,46.55l-3.71,8.77h2.5v-3h2.48v3h1v2.18h-1v2.08H59.35V57.53h-5c0-.5,0-1,0-1.44a3.19,3.19,0,0,1,.29-1.43C55.75,52,56.85,49.42,58,46.79a.34.34,0,0,1,.38-.26h1.93Z"/><path class="cls-1" d="M73.45,59.59H71.17V54.14h-4v5.45H64.93V46.53h2.29v5.33h4V46.53h2.28Z"/><path class="cls-1" d="M56,108.5A52.5,52.5,0,1,1,108.5,56,52.56,52.56,0,0,1,56,108.5Zm0-104A51.5,51.5,0,1,0,107.5,56,51.55,51.55,0,0,0,56,4.5Z"/></svg>