<svg id="Layer_1" data-name="Layer 1" xmlns="http://www.w3.org/2000/svg" viewBox="0 0 112 112"><defs><style>.cls-1{fill:#fafafa;}</style></defs><path class="cls-1" d="M73.62,33c-.17-.5-.57-.32-1-.34s-.31.32-.34.5c-.16.9-.44,1.7-1.43,2-.1,0-.23.11-.25.19-.17.63-.59.51-1,.34S69.36,36,69,36a28.71,28.71,0,0,0-3.65-.76,3.08,3.08,0,0,0,1-1.79.15.15,0,0,1,.06-.11c.39-.26.47-.75.8-1s.18-.5,0-.73a1.72,1.72,0,0,0-.73-.53,6.49,6.49,0,0,1-2.37-1.44,1.66,1.66,0,0,0-.8-.52A4,4,0,0,1,61,28a6.52,6.52,0,0,1-1.55-1.68,2.2,2.2,0,0,0-1.33-1.16c-1.44-.35-1.85,0-2.4,1.3,0,0-.07,0-.11,0-.39-1.18-.44-1.23-1.73-1.17A1.54,1.54,0,0,1,52.68,25c-.21-.2-.37-.22-.47.09s-.24.31-.44.42a3.28,3.28,0,0,0-1,1c-.25.35.19.52.12.82-.23,1-.37,2-1.65,2.24l-.06,0c-.69.34-.82.6-.61,1.36a.27.27,0,0,1-.06.29c-.36.39-.19.79,0,1.2.09.25.33.53.1.78s-.2.66.09.94.18.71-.19.74c-.63,0-.66.46-.76.89a2.06,2.06,0,0,1-.47,1,5.94,5.94,0,0,0-.71,1.61,4.12,4.12,0,0,0-.18,2.13c0,.23.33.49,0,.7a1.36,1.36,0,0,0-.51,1.15.47.47,0,0,1-.13.32.91.91,0,0,0-.1,1.17c.17.3.27.71.42.9.51.65,0,1.71.92,2.15,0,0,0,.17,0,.24a1.69,1.69,0,0,0,0,1,.66.66,0,0,1-.08.49,3.4,3.4,0,0,0-.55,2.8,1,1,0,0,1-.22.95c-.29.36-.79.61-.77,1.16a7.64,7.64,0,0,0,.56,3.14c.17.36.12.51-.2.64a.62.62,0,0,0-.48.67c.07.68-.37,1.31-.28,1.94s-.19,1,0,1.57a5.09,5.09,0,0,1-.08,2.44s0,0,0,.07c.24.55-.36,1.38.54,1.73,0,0,.09.13.09.14-.44.33.11.53.09.79s.23.39.09.67c-.21.44-.13.75.48.68.15,0,.4,0,.37.23s-.08.44-.36.47c-.1,0-.22,0-.32,0s-.45-.11-.47.17.24.17.41.21c.35.08.8.35.58.65A1.56,1.56,0,0,0,46,71a2.94,2.94,0,0,1-.08,1.89c-.13.21-.15.57-.33.84a1.1,1.1,0,0,0-.21,1c.43.81,0,1.42-.39,2a2.27,2.27,0,0,0-.43,2c.08.31.44.45.46.82s.2.46.57.29c.56-.26.6-.15.67.46s-.17,1,.29,1.42a1.2,1.2,0,0,0,1,.38,12,12,0,0,1,3.61.29,4.52,4.52,0,0,1-1-1.94c-.25-.94-.09-1.63.79-2a1.09,1.09,0,0,0,.78-1.17c-.11-1.08.62-1.58,1.3-2.09a2.19,2.19,0,0,0,1-1.89c0-.38-.17-.68-.56-.65A1.63,1.63,0,0,1,52.05,72a1.76,1.76,0,0,1,.39-2.65c.41-.17.68-.71,1.25-.5.31.11.61.12.32-.37-.09-.15,0-.3.17-.37s.29-.4.35-.68c.12-.54-.22-1.1.19-1.65.29-.4.78-.41,1.11-.79-.26-.07-.45-.12-.64-.19s-.3-.14-.27-.32.14-.2.26-.25c.33-.16.6-.21.74.25s.44.34.71.17a1.14,1.14,0,0,0,.07-1.25.42.42,0,0,0-.54,0c-.07,0-.28.07-.18.18.42.49-.09.31-.26.38-.17-.43-.88-.36-.91-.81,0-.67-.17-1.32-.2-2,0-.29.19-.53.43-.34a7.28,7.28,0,0,0,1.15.5,2.17,2.17,0,0,0,2.24-.19c.29-.16.51-.41.27-.8A1,1,0,0,1,59,59c.29-.29.29-.82.1-.94-.45-.28-.23-.64-.36-1,.35.09.56.34.89.34A15.15,15.15,0,0,0,65,56.57c.34-.12.74-.24.9-.58a8.8,8.8,0,0,1,1.17-1.54,1.93,1.93,0,0,0,.48-1c0-.32.06-.61-.43-.76a.78.78,0,0,1-.36-1.29.68.68,0,0,0,0-.93,3.63,3.63,0,0,0-1.09-.78c-.37-.23-.8-.5-.61-1a1.41,1.41,0,0,0,0-.86,1.37,1.37,0,0,1,.34-1.42.61.61,0,0,0,.28-.59A6.27,6.27,0,0,1,65.8,44a20.5,20.5,0,0,0,.61-2c.07-.3,0-.58.27-.86,1-1.13,2.17-2.15,3.1-3.36.12-.15.46-.09.38-.42a3.76,3.76,0,0,1,.56-.3c.68-.27,1.13-.92,1.92-1.06a1.17,1.17,0,0,0,.93-.61A3.67,3.67,0,0,0,73.62,33Z"/><path class="cls-1" d="M54.59,86.47a2.19,2.19,0,0,1-1.2-.36c-.84-.56-1.45-1.37-2.23-2-.1-.08-.17-.19-.07-.26.51-.34,0-.51-.16-.74,0,1.16.1,2.3.1,3.46,0,.29.12.41.49.39a5.07,5.07,0,0,1,1.65.16A3.13,3.13,0,0,0,54.7,87a.29.29,0,0,0,.23-.34C54.93,86.38,54.71,86.48,54.59,86.47Z"/><path class="cls-1" d="M56,111a55,55,0,1,1,55-55A55.06,55.06,0,0,1,56,111ZM56,2.05a54,54,0,1,0,54,54A54,54,0,0,0,56,2.05Z"/></svg>