<svg id="Layer_1" data-name="Layer 1" xmlns="http://www.w3.org/2000/svg" viewBox="0 0 112 112"><defs><style>.cls-1{fill:#fafafa;}.cls-2{fill:#202020;}</style></defs><path class="cls-1" d="M56,27.19A28.81,28.81,0,1,0,84.81,56,28.85,28.85,0,0,0,56,27.19ZM67.4,61.39c-1.22,1.52-3.57,2.91-7,4.14-1.74.64-3.33,1.16-4.86,1.58a26.46,26.46,0,0,1-3.86.79l-.2,0L49,64.3l.51-.09c1.78-.31,3.43-.66,5-1.08A45.57,45.57,0,0,0,59,61.78a11.56,11.56,0,0,0,4.25-2.25,2.08,2.08,0,0,0,.46-2.34,1.94,1.94,0,0,0-1.76-1.34,11,11,0,0,0-4.48.95c-1.31.43-2.65,1-4.28,1.72-1.39.65-2.94,1.4-4.86,2.38l-.37.18-2.7-10.69,15.66-5.7.94,3.73L49.67,52.84l.68,2.84c1.23-.6,2.39-1.13,3.46-1.6s2.16-.91,3.11-1.25c2.88-1.06,5.31-1.36,7.19-.88a5.68,5.68,0,0,1,4,3.85A5.47,5.47,0,0,1,67.4,61.39Z"/><path class="cls-2" d="M37.13,65.34a1.63,1.63,0,0,0-3.21-.56,1.65,1.65,0,0,0,1.31,1.9A1.67,1.67,0,0,0,37.13,65.34Z"/><path class="cls-2" d="M76.77,63.57a1.63,1.63,0,0,0-1.9,1.31,1.67,1.67,0,0,0,1.34,1.9,1.63,1.63,0,0,0,.56-3.21Z"/><path class="cls-2" d="M37,58.86a1.83,1.83,0,0,0,.58-1.29l.1-3.06a.78.78,0,0,0-.12-.46.66.66,0,0,0-.34-.34l.49,0,0-1.29L34,52.3l-.13,3.28,1.39.05,0-1.32a2.37,2.37,0,0,0-.05-.68h.15a1,1,0,0,1,.65.32,1.08,1.08,0,0,1,.27.65l-.1,2.92a.7.7,0,0,1-.14.34.54.54,0,0,1-.34.12l-2.43-.09a.44.44,0,0,1-.32-.15.55.55,0,0,1-.12-.32L33,54a.34.34,0,0,1,.29-.36l-.83-1.14a1.69,1.69,0,0,0-.82,1.46l-.13,3.45A1.72,1.72,0,0,0,32,58.66a1.66,1.66,0,0,0,1.29.59l2.41.1A1.83,1.83,0,0,0,37,58.86Z"/><path class="cls-2" d="M36.89,43.28v0l-1.75-.08-.83,1.44,2.58,4.08h0L38,50.42l.78-1.36-.85-1.26,1.77-3.06,1.51.09L42,43.47Zm.19,3.2a1.35,1.35,0,0,0-.19-.31h0a10.08,10.08,0,0,0-1.24-1.7,9.51,9.51,0,0,0,1,.13v0l1.45.06Z"/><path class="cls-2" d="M46.49,38.12l.17-.12a1.73,1.73,0,0,0,.8-1.12,1.8,1.8,0,0,0-.22-1.36l-.32-.5a1.76,1.76,0,0,0-1.14-.83,1.8,1.8,0,0,0-1.36.24l-.41.25-.73,2,1.85-1.15a.51.51,0,0,1,.34,0,.44.44,0,0,1,.29.22l.32.48a.35.35,0,0,1,0,.34.46.46,0,0,1-.19.29L44,38.06h0l-1.34.85-.8-1.29L44,36.27v-1.6l-4,2.5,3.2,5.16.81-.51h0l.36-.22L44,41h0l-.61-1,.61-.38h0l.92-.56,2.43.63,1.66-1Z"/><path class="cls-2" d="M54.77,36.25h0l1.84-.12.78,1.29,1.53-.1-3.57-5.83-.58.05V33c.09.22.24.46.38.73s.32.51.66,1l-1,.07h0l-1.05.08a12,12,0,0,0,.87-2.31c0,.12.1.24.17.39V31.53l-1.07.08L51,37.88l1.58-.12.58-1.39Z"/><path class="cls-2" d="M63.69,34.48a5.75,5.75,0,0,0,.22,1l1.48,4.57,1.56.69,2.47-5.55-1.26-.56-1.82,4.1a5.52,5.52,0,0,0-.22-1L64.52,33l-1.41-.61L60.65,38l1.24.57Z"/><polygon class="cls-2" points="70.71 45.03 74.38 42.06 75.79 43.81 76.84 42.94 73.19 38.44 72.15 39.29 73.53 41.02 69.86 43.98 70.71 45.03"/><rect class="cls-2" x="72.98" y="47.6" width="6.08" height="1.36" transform="translate(-12.57 32.1) rotate(-22.07)"/><path class="cls-2" d="M80.46,56.55l0-1.66-2.18-1.06h0l-4-1.89.05,1.58,1.38.6.12,3.5-1.33.73,0,1.56,3.73-2.09h0Zm-3.4-1.75,1.16.53h0a6,6,0,0,0,1.14.42,8.84,8.84,0,0,0-1.14.5v0h0c-.19.08-.53.29-1.09.58Z"/><path class="cls-2" d="M41.85,72.05l-2-1.77.65-.76,3.45,3,.88-1-4.5-3.91L37.86,70.4l3.3,2.87a.54.54,0,0,1,.22.36.46.46,0,0,1-.09.42.51.51,0,0,1-.39.14.72.72,0,0,1-.39-.17l-3.3-2.87-.88,1,3.09,2.7a2.77,2.77,0,0,0,1.09.61,1.62,1.62,0,0,0,1.21,0,1.74,1.74,0,0,0,.66-.44,1.62,1.62,0,0,0,.34-.71,1.76,1.76,0,0,0-.09-1.21A2.87,2.87,0,0,0,41.85,72.05Z"/><path class="cls-2" d="M48.72,73.49l-.29.29h0L43.74,78.2l1.51.51,1.07-1.07,2.11.73h0l1.21.41.2,1.51,1.48.51-1-6.75Zm-.29,3.43h0l-1-.34c.37-.36.71-.68,1-.95h0a7.82,7.82,0,0,0,.73-.84A5.71,5.71,0,0,0,49.23,76c0,.17.07.58.17,1.21Z"/><path class="cls-2" d="M58.37,74.75l.17,4.49c-.22-.29-.42-.55-.61-.77L54.38,74.9l-1.5,0L53.07,81l1.39,0-.17-4.45a5.55,5.55,0,0,0,.65.85l3.31,3.45,1.7,0-.22-6.08Z"/><path class="cls-2" d="M57,74.19a1.62,1.62,0,0,1-.53-.2,1.56,1.56,0,0,0-.63-.21c-.39-.06-.63.21-.73.77l.36.08c0-.32.15-.47.32-.49a1.62,1.62,0,0,1,.53.2,2.07,2.07,0,0,0,.59.24.52.52,0,0,0,.48-.2.91.91,0,0,0,.25-.58l-.4-.07C57.27,74,57.18,74.19,57,74.19Z"/><path class="cls-2" d="M68.36,75.94l-.9-2.24a1.82,1.82,0,0,0-2.36-1l-2,.8-1.46.58a1.85,1.85,0,0,0-1,1,1.74,1.74,0,0,0,0,1.38l.9,2.24a1.78,1.78,0,0,0,1,1,1.73,1.73,0,0,0,1.41,0l.59-.22h0l2.84-1.16a1.68,1.68,0,0,0,1-1A1.74,1.74,0,0,0,68.36,75.94Zm-1.26.85a.4.4,0,0,1-.25.24l-2.33,1h0l-1.1.47a.64.64,0,0,1-.36,0,.41.41,0,0,1-.24-.24L61.92,76a.47.47,0,0,1,0-.37.56.56,0,0,1,.24-.24l1.77-.71h0l.58-.23h0L65.61,74A.43.43,0,0,1,66,74a.41.41,0,0,1,.24.26l.9,2.24A.5.5,0,0,1,67.1,76.79Z"/><path class="cls-2" d="M74.58,70.69a1.64,1.64,0,0,0-.63-.44,1.81,1.81,0,0,0-1.24-.07,2.7,2.7,0,0,0-1.09.63l-1.8,1.53a.74.74,0,0,1-.39.22.55.55,0,0,1-.39-.14.44.44,0,0,1-.1-.44.68.68,0,0,1,.25-.37l3.3-2.87-.9-1-3.13,2.74a2.06,2.06,0,0,0-.85,2.14,1.78,1.78,0,0,0,1,1.2,2.13,2.13,0,0,0,2.27-.54l1.82-1.58a.66.66,0,0,1,.41-.17.39.39,0,0,1,.37.15.4.4,0,0,1,.09.39.62.62,0,0,1-.24.39L70,75.31l.9,1,3.14-2.74a2.13,2.13,0,0,0,.89-2.21A1.91,1.91,0,0,0,74.58,70.69Z"/><path class="cls-2" d="M67.4,61.39c-1.22,1.52-3.57,2.91-7,4.14-1.74.64-3.33,1.16-4.86,1.58a26.46,26.46,0,0,1-3.86.79l-.2,0L49,64.3l.51-.09c1.78-.31,3.43-.66,5-1.08A45.57,45.57,0,0,0,59,61.78a11.56,11.56,0,0,0,4.25-2.25,2.08,2.08,0,0,0,.46-2.34,1.94,1.94,0,0,0-1.76-1.34,11,11,0,0,0-4.48.95c-1.31.43-2.65,1-4.28,1.72-1.39.65-2.94,1.4-4.86,2.38l-.37.18-2.7-10.69,15.66-5.7.94,3.73L49.67,52.84l.68,2.84c1.23-.6,2.39-1.13,3.46-1.6s2.16-.91,3.11-1.25c2.88-1.06,5.31-1.36,7.19-.88a5.68,5.68,0,0,1,4,3.85A5.47,5.47,0,0,1,67.4,61.39Z"/><path class="cls-1" d="M56,111a55,55,0,1,1,55-55A55.06,55.06,0,0,1,56,111ZM56,2.05a54,54,0,1,0,54,54A54,54,0,0,0,56,2.05Z"/></svg>