<svg id="Layer_1" data-name="Layer 1" xmlns="http://www.w3.org/2000/svg" viewBox="0 0 112 112"><defs><style>.cls-1{fill:#fafafa;}</style></defs><path class="cls-1" d="M82.19,56V73.79l-.61,0H30.52c-.56,0-.71-.14-.71-.7q0-8.23,0-16.48c0-.56.18-.66.69-.66H82.19ZM34.7,67.73c1.73,0,3.38,0,5,0,.46,0,.6-.14.59-.6,0-2.61,0-5.23,0-7.85,0-.17,0-.34,0-.54H34.7Zm15.86-9H45.32c-.4,0-.36.26-.36.51,0,2.65,0,5.31,0,8,0,.46.18.54.58.53,1.49,0,3,0,4.45,0,.48,0,.63-.13.63-.62,0-2.6,0-5.2,0-7.8C50.59,59.13,50.57,59,50.56,58.72Zm4.38,9c1.7,0,3.33,0,5,0,.51,0,.66-.13.66-.65,0-2.56,0-5.13,0-7.69,0-.21,0-.41,0-.64H54.94Z"/><path class="cls-1" d="M48,38.17l1.25,4.1c.26.86.54,1.73.75,2.61.11.48.32.52.72.35l5.2-2.08L67.29,38.6l1.09-.43c.22,1,.42,2,.61,3,.25,1.25.51,2.49.72,3.75.07.43.24.56.67.56,3.65,0,7.29,0,10.93,0h.86v7.68H29.86c0-.18,0-.37,0-.55,0-2.2,0-4.4,0-6.59a.66.66,0,0,1,.51-.76q7.59-3,15.17-6.06Z"/><path class="cls-1" d="M56,111a55,55,0,1,1,55-55A55.06,55.06,0,0,1,56,111ZM56,2.05a54,54,0,1,0,54,54A54,54,0,0,0,56,2.05Z"/></svg>