<svg id="Layer_1" data-name="Layer 1" xmlns="http://www.w3.org/2000/svg" viewBox="0 0 112 112"><defs><style>.cls-1{fill:#fafafa;}</style></defs><path class="cls-1" d="M47.78,59.78a10.64,10.64,0,0,0,1.55,3.5c1.53,2.46,3.14,4.87,4.71,7.3l.11.12a1.64,1.64,0,0,0,.07-.15c.11-1.63.22-3.26.34-4.89a.58.58,0,0,0-.29-.62A3,3,0,0,1,52.9,62.7a8,8,0,0,0,6.19,0,3.08,3.08,0,0,1-1.37,2.37c-.13.1-.28.28-.27.41.1,1.73.22,3.45.34,5.19,1.15-.88,5.86-8.85,6.45-10.93.74.14,1.5.24,2.24.44a13.48,13.48,0,0,1,9.85,14.58A5.77,5.77,0,0,1,71.72,80a22.79,22.79,0,0,1-6.21.66q-9.87,0-19.74,0a18.51,18.51,0,0,1-6.05-.82,5.63,5.63,0,0,1-3.43-2.87,7.92,7.92,0,0,1-.72-3.45A13.46,13.46,0,0,1,47,59.87C47.22,59.83,47.49,59.81,47.78,59.78Z"/><path class="cls-1" d="M66.75,42.4c0,.51,0,1,0,1.52a.38.38,0,0,0,.28.44,3,3,0,0,1,2.15,3.13c0,.82,0,1.64-.05,2.45a3.07,3.07,0,0,1-2.55,2.63,1.64,1.64,0,0,0-.63.35c-.18.13-.3.35-.49.47a4.05,4.05,0,0,0-1.33,1.78,11.51,11.51,0,0,1-4.29,4.9,7.36,7.36,0,0,1-8.8-.8A13.73,13.73,0,0,1,47,53a.47.47,0,0,0-.57-.39,3.35,3.35,0,0,1-2.86-1.16,2.62,2.62,0,0,1-.68-1.65,24.29,24.29,0,0,1,0-2.83,2.88,2.88,0,0,1,2-2.57.51.51,0,0,0,.37-.55A27.23,27.23,0,0,1,45.33,40a9.78,9.78,0,0,1,5.79-7.52,10.76,10.76,0,0,1,9-.31,10,10,0,0,1,6.6,8.34,14.42,14.42,0,0,1,0,1.86Zm-19.28,6a11,11,0,0,0,0,1.82,14.07,14.07,0,0,0,3.08,6.63c2.78,3.25,6.86,3.62,10,.89a10.26,10.26,0,0,0,2.14-2.62c-.22.07-.34.13-.48.16-1.14.26-2.29.53-3.44.78a1.16,1.16,0,0,0-.61.29,2,2,0,0,1-1,.48,13.74,13.74,0,0,1-2,0,1.4,1.4,0,0,1,0-2.8,15.69,15.69,0,0,1,1.94,0,3.69,3.69,0,0,1,1,.38c.18.07.37.21.54.19A12.39,12.39,0,0,0,63,53.42a1.83,1.83,0,0,0,1.12-1.35,13.4,13.4,0,0,0,.35-1.35c.06-.73,0-1.47,0-2.25l-1,.5c0-.22.06-.4.07-.58,0-1.32.07-2.64,0-4a2.92,2.92,0,0,0-.72-1.86.66.66,0,0,0-.89-.21,7.93,7.93,0,0,1-1.33.51,14.39,14.39,0,0,1-4.77.84,16.25,16.25,0,0,1-5.57-1.27c-.64-.26-.88-.2-1.24.39a4.43,4.43,0,0,0-.38.93,11.12,11.12,0,0,0-.18,3.86c0,.43.08.87.13,1.34Zm.14-8.2a10,10,0,0,1,16.69-.15,8.57,8.57,0,0,0-16.69.15Z"/><path class="cls-1" d="M56,111a55,55,0,1,1,55-55A55.06,55.06,0,0,1,56,111ZM56,2.05a54,54,0,1,0,54,54A54,54,0,0,0,56,2.05Z"/></svg>