<svg id="Layer_1" data-name="Layer 1" xmlns="http://www.w3.org/2000/svg" viewBox="0 0 112 112"><defs><style>.cls-1{fill:#fafafa;}</style></defs><path class="cls-1" d="M40.45,64l.24,0c1.83,0,3.67,0,5.5.08a16.15,16.15,0,0,1,4.75.89,16.28,16.28,0,0,0,5.17.89c3,0,6,0,9,0a2,2,0,0,1,2.07,1.54,2,2,0,0,1-1.88,2.4c-.41,0-.83,0-1.24,0-2.68,0-5.37,0-8.05,0a7,7,0,0,0-4.44,1.52,1.8,1.8,0,0,0-.29.26.58.58,0,0,0,0,.75.58.58,0,0,0,.74.13.91.91,0,0,0,.16-.11A5.93,5.93,0,0,1,56.09,71h9a3.24,3.24,0,0,0,3.35-2.68.46.46,0,0,1,.24-.29q5.24-2.19,10.49-4.34a2.44,2.44,0,0,1,1.84,0,1.64,1.64,0,0,1,1.2,1.29,1.67,1.67,0,0,1-.78,1.71c-.62.44-1.26.84-1.9,1.26L63.4,78.43c-.34.23-.69.44-1,.68a6.28,6.28,0,0,1-5.38,1c-5.41-1.28-10.84-2.52-16.26-3.77a.32.32,0,0,1-.3-.39V64.26C40.43,64.17,40.44,64.07,40.45,64Z"/><path class="cls-1" d="M29.81,59.24H35V81.57H29.81Z"/><path class="cls-1" d="M36.21,79.71V60.8h2.15a.81.81,0,0,1,.86.85v17c0,.78-.27,1-1.06,1Z"/><path class="cls-1" d="M58.83,57.13H55.49c-.8,0-1.09-.27-1.23-1.06s-.22-1.29-.35-1.93a6.5,6.5,0,0,0-1.31-2.69c-2.19-2.8-3.12-5.92-1.93-9.41a8.65,8.65,0,0,1,16.67,1.53,9.39,9.39,0,0,1-2.1,7.57,9.18,9.18,0,0,0-1.83,4.55c-.2,1.32-.33,1.44-1.67,1.45Zm0-1.9c.68,0,1.35,0,2,0s.82-.21.91-.77a8.46,8.46,0,0,1,2-4.39,7.89,7.89,0,0,0,1.67-3.39,6.77,6.77,0,1,0-13.19-3A7.75,7.75,0,0,0,54,50.14a8.88,8.88,0,0,1,1.86,4c0,.19.09.39.11.58a.54.54,0,0,0,.64.53C57.32,55.22,58.06,55.23,58.79,55.23Z"/><path class="cls-1" d="M61.81,58.29c.42,0,.61.11.62.57,0,1.19-.22,1.53-1.4,1.77-.31.06-.36.22-.4.49a1.19,1.19,0,0,1-1.34,1.2h-1c-.85,0-1.23-.36-1.33-1.21,0-.36-.2-.45-.52-.49a1.51,1.51,0,0,1-1.26-2.06c.09-.29.31-.26.52-.26C56.77,58.29,60.82,58.31,61.81,58.29Z"/><path class="cls-1" d="M71.9,52.56a.72.72,0,0,1-1,.67,20.12,20.12,0,0,1-2-1.16.66.66,0,0,1-.18-1,.65.65,0,0,1,.87-.31A12.7,12.7,0,0,1,71.64,52,.67.67,0,0,1,71.9,52.56Z"/><path class="cls-1" d="M49,51.48a.71.71,0,0,1-.39.68c-.58.35-1.16.69-1.75,1a.75.75,0,1,1-.73-1.3c.55-.34,1.12-.68,1.69-1A.74.74,0,0,1,49,51.48Z"/><path class="cls-1" d="M49,39.31a.71.71,0,0,1-1,.7,21.08,21.08,0,0,1-2-1.12.66.66,0,0,1-.24-.94.68.68,0,0,1,.91-.35,13.51,13.51,0,0,1,2.05,1.19A.59.59,0,0,1,49,39.31Z"/><path class="cls-1" d="M71,37.56c.44,0,.68.12.81.39a.64.64,0,0,1-.1.82,10.32,10.32,0,0,1-2.2,1.29.63.63,0,0,1-.77-.31.6.6,0,0,1,0-.82A9,9,0,0,1,71,37.56Z"/><path class="cls-1" d="M58.06,32.18c0-.34,0-.68,0-1a.7.7,0,0,1,.71-.73.68.68,0,0,1,.79.7c0,.72,0,1.43,0,2.14a.7.7,0,0,1-.74.72.72.72,0,0,1-.76-.75C58,32.89,58.06,32.53,58.06,32.18Z"/><path class="cls-1" d="M52.22,33.18a.69.69,0,0,1,.56.3,12.76,12.76,0,0,1,.64,1.14.74.74,0,0,1-1.24.75,4,4,0,0,1-.7-1.23A.74.74,0,0,1,52.22,33.18Z"/><path class="cls-1" d="M66.18,34a3.39,3.39,0,0,1-.9,1.48.64.64,0,0,1-.83,0,.65.65,0,0,1-.27-.78,4.45,4.45,0,0,1,.74-1.28.64.64,0,0,1,.81-.16A.75.75,0,0,1,66.18,34Z"/><path class="cls-1" d="M46.1,46.18a4.17,4.17,0,0,1-.71,0,.74.74,0,0,1,0-1.43,3.89,3.89,0,0,1,1.36,0,.75.75,0,0,1-.07,1.49c-.18,0-.36,0-.53,0Z"/><path class="cls-1" d="M71.49,46.16c-.88,0-1.24-.2-1.26-.72s.36-.79,1.27-.79a4.11,4.11,0,0,1,.7,0,.68.68,0,0,1,.61.75.69.69,0,0,1-.66.71A4.85,4.85,0,0,1,71.49,46.16Z"/><path class="cls-1" d="M56,111a55,55,0,1,1,55-55A55.06,55.06,0,0,1,56,111ZM56,2.05a54,54,0,1,0,54,54A54,54,0,0,0,56,2.05Z"/></svg>