<svg id="Layer_1" data-name="Layer 1" xmlns="http://www.w3.org/2000/svg" viewBox="0 0 34.73 34.73"><defs><style>.cls-1{fill:#fff;}</style></defs><path class="cls-1" d="M34.72,16.49A17.05,17.05,0,0,0,.65,16.18c0,.25,0,.49,0,.74a16.77,16.77,0,0,0,2.44,8.74L0,34.73l9.44-3A17.07,17.07,0,0,0,34.73,16.92C34.73,16.78,34.73,16.63,34.72,16.49Zm-17,14.65a14.32,14.32,0,0,1-7.89-2.35l-5.5,1.75,1.78-5.28a14.13,14.13,0,0,1-2.73-8.34,12.62,12.62,0,0,1,.08-1.38A14.34,14.34,0,0,1,32,15.81a10.31,10.31,0,0,1,0,1.11A14.29,14.29,0,0,1,17.68,31.14Z"/><path class="cls-1" d="M25.49,20.34c-.42-.21-2.47-1.22-2.85-1.35s-.67-.21-.95.21-1.08,1.34-1.32,1.62-.49.31-.91.1a11.24,11.24,0,0,1-3.36-2.06A12.11,12.11,0,0,1,13.78,16c-.24-.41,0-.63.18-.84s.41-.49.63-.73l.15-.2a3.18,3.18,0,0,0,.26-.49A.72.72,0,0,0,15,13c-.1-.21-.94-2.25-1.29-3.08s-.69-.69-.94-.69-.52,0-.8,0a1.58,1.58,0,0,0-1.12.52,4.67,4.67,0,0,0-1.46,3.47,5.19,5.19,0,0,0,.22,1.41,9.22,9.22,0,0,0,1.49,2.87c.21.27,2.89,4.6,7.14,6.27s4.25,1.1,5,1a4.19,4.19,0,0,0,2.81-2,3.49,3.49,0,0,0,.25-2C26.19,20.65,25.91,20.54,25.49,20.34Z"/></svg>